/* XPM */
static char * shade_active_xpm[] = {
"20 24 4 1",
" 	c #3C3836",
".	c #414343",
"+	c #3B3E3F",
"@	c #FFFFFF",
"                    ",
"....................",
"++++++++++++++++++++",
"++++++++++++++++++++",
"++++++++++++++++++++",
"++++++++++++++++++++",
"++++++++++++++++++++",
"++++++++++++++++++++",
"++++++++++++++++++++",
"+++++++++@@+++++++++",
"++++++++@@@@++++++++",
"+++++++@@@@@@+++++++",
"++++++@@@@@@@@++++++",
"+++++++++@@+++++++++",
"+++++++++@@+++++++++",
"+++++++++@@+++++++++",
"+++++++++@@+++++++++",
"++++++++++++++++++++",
"++++++++++++++++++++",
"++++++++++++++++++++",
"++++++++++++++++++++",
"++++++++++++++++++++",
"++++++++++++++++++++",
"++++++++++++++++++++"};
