/* XPM */
static char * stick_prelight_xpm[] = {
"20 24 9 1",
" 	c #3C3836",
".	c #414343",
"+	c #3B3E3F",
"@	c #BCBCBC",
"#	c #131313",
"$	c #B6B6B6",
"%	c #B3B3B3",
"&	c #AFAFAF",
"*	c #A6A6A6",
"                    ",
"....................",
"++++++++++++++++++++",
"++++++++++++++++++++",
"++++++++++++++++++++",
"++++++++++++++++++++",
"++++++++++++++++++++",
"++++++++++++++++++++",
"++++++++++++++++++++",
"++++++++@@@@++++++++",
"+++++++@@@@@@+++++++",
"++++++@@####@@++++++",
"++++++$$++++$$++++++",
"++++++%%++++%%++++++",
"++++++&&++++&&++++++",
"++++++#******#++++++",
"+++++++#****#+++++++",
"++++++++####++++++++",
"++++++++++++++++++++",
"++++++++++++++++++++",
"++++++++++++++++++++",
"++++++++++++++++++++",
"++++++++++++++++++++",
"++++++++++++++++++++"};
