/* XPM */
static char * title_1_active_xpm[] = {
"2 24 3 1",
" 	c #3C3836",
".	c #3C3836",
"+	c #1D2021",
"  ",
"..",
"++",
"++",
"++",
"++",
"++",
"++",
"++",
"++",
"++",
"++",
"++",
"++",
"++",
"++",
"++",
"++",
"++",
"++",
"++",
"++",
"++",
"++"};
